<?xml version="1.0" encoding="utf-8"?>
<!-- Generator: Adobe Illustrator 24.2.3, SVG Export Plug-In . SVG Version: 6.00 Build 0)  -->
<svg version="1.1" id="Layer_1" xmlns="http://www.w3.org/2000/svg" xmlns:xlink="http://www.w3.org/1999/xlink" x="0px" y="0px"
	 viewBox="0 0 2048 2048" style="enable-background:new 0 0 2048 2048;" xml:space="preserve">
<style type="text/css">
	.st0{fill:#FFFFFF;}
</style>
<g>
	<path class="st0" d="M847,1067.3c-37.6-37.6-85.7-60.3-144.2-68.2v-2.6c48-14.8,87-39.3,116.7-73.4c29.7-34.1,44.6-77.3,44.6-129.8
		c0-42-8.3-77.7-24.9-107.5c-16.6-29.7-38.2-53.9-64.9-72.8c-26.7-18.7-57-32.3-91.1-40.6c-34.1-8.3-68.6-12.5-103.6-12.5H217.8
		v519.1h319.9c67.3,0,117.5,9.6,150.8,28.8c33.2,19.3,49.8,53.4,49.8,102.3c0,30.6-6.8,55.1-20.3,73.4c-13.6,18.4-30.6,32.4-51.1,42
		c-20.5,9.6-43.1,16-67.5,19c-24.4,3.1-47.2,4.6-68.2,4.6H382.9v-128.5H217.8v267.4H552c43.7,0,86.7-4.6,129.1-13.8
		c42.4-9.2,80-24.3,112.7-45.2c32.8-21,59.2-48.7,79.3-83.2c20.1-34.5,30.2-77.1,30.2-127.8C903.4,1155.1,884.6,1104.9,847,1067.3z
		 M655.6,904.7c-28.8,21.9-70.8,32.8-125.9,32.8H382.9V696.3h132.4c62.9,0,109.3,8.8,139,26.2c29.7,17.5,44.6,47.2,44.6,89.1
		C698.9,851.9,684.5,882.9,655.6,904.7z"/>
	<path class="st0" d="M1784.4,804.4c-30.6-59-70.4-106.6-119.3-142.9c-49-36.2-104-62.3-165.2-78c-61.2-15.7-121.9-23.6-182.2-23.6
		H988.6v141.6h302.8c42.8,0,85.6,4.4,128.5,13.1c42.8,8.8,81.5,24.9,116,48.5c34.5,23.6,62.7,56.4,84.6,98.3
		c21.8,42,32.8,96.2,32.8,162.6c0,62.9-10.9,115-32.8,156c-21.9,41.1-50.1,73.7-84.6,97.7c-34.5,24.1-73.2,41.1-116,51.1
		c-42.9,10.1-85.7,15.1-128.5,15.1h-137.7V843.1H988.6v645h329.1c60.3,0,121-8.9,182.2-26.9c61.2-17.9,116.2-45.6,165.2-83.2
		c48.9-37.6,88.7-85.6,119.3-144.2c30.5-58.5,45.9-128.5,45.9-209.8C1830.2,936.6,1814.9,863.4,1784.4,804.4z"/>
</g>
</svg>
