<?xml version="1.0" encoding="utf-8"?>
<!-- Generator: Adobe Illustrator 24.2.3, SVG Export Plug-In . SVG Version: 6.00 Build 0)  -->
<svg version="1.1" id="Layer_1" xmlns="http://www.w3.org/2000/svg" xmlns:xlink="http://www.w3.org/1999/xlink" x="0px" y="0px"
	 viewBox="0 0 2048 2048" style="enable-background:new 0 0 2048 2048;" xml:space="preserve">
<style type="text/css">
	.st0{fill:#FFFFFF;}
</style>
<rect x="-9.2" y="-57.5" width="2103.4" height="2200"/>
<g>
	<path class="st0" d="M842,1068.5c-38.6-38.6-88.1-62-148.3-70.1v-2.7c49.4-15.2,89.5-40.5,120-75.5c30.5-35.1,45.8-79.6,45.8-133.5
		c0-43.2-8.6-80-25.6-110.6c-17.1-30.5-39.3-55.5-66.8-74.8c-27.4-19.3-58.7-33.2-93.7-41.8c-35.1-8.5-70.6-12.8-106.5-12.8H194.7
		v534h329c69.2,0,120.9,9.9,155.1,29.7c34.2,19.8,51.2,54.9,51.2,105.2c0,31.5-6.9,56.6-20.9,75.5s-31.5,33.3-52.6,43.2
		c-21.1,9.9-44.3,16.5-69.4,19.6c-25.1,3.2-48.5,4.7-70.1,4.7H364.6v-132.2H194.7v275.1h343.9c45,0,89.2-4.7,132.8-14.2
		c43.6-9.4,82.3-24.9,116-46.5c33.7-21.6,60.9-50.1,81.6-85.6c20.7-35.5,31-79.3,31-131.5C899.9,1158.8,880.6,1107.2,842,1068.5z
		 M645.1,901.3c-29.7,22.5-72.8,33.7-129.5,33.7h-151V686.9h136.2c64.7,0,112.4,9,142.9,27c30.5,18,45.8,48.5,45.8,91.7
		C689.6,846.9,674.7,878.8,645.1,901.3z"/>
	<path class="st0" d="M1806.1,798.1c-31.5-60.7-72.4-109.6-122.7-147c-50.4-37.3-107-64.1-169.9-80.2
		c-63-16.2-125.4-24.3-187.4-24.3H987.6v145.6h311.5c44,0,88.1,4.5,132.2,13.5c44,9,83.8,25.6,119.3,49.9
		c35.5,24.3,64.5,58,87,101.1c22.5,43.2,33.7,98.9,33.7,167.2c0,64.7-11.3,118.3-33.7,160.5c-22.5,42.3-51.5,75.8-87,100.5
		c-35.5,24.7-75.3,42.3-119.3,52.6c-44.1,10.4-88.1,15.5-132.2,15.5h-141.6V837.9H987.6v663.5h338.5c62,0,124.5-9.2,187.4-27.6
		c62.9-18.4,119.5-46.9,169.9-85.6c50.3-38.6,91.2-88.1,122.7-148.3c31.4-60.2,47.2-132.2,47.2-215.8
		C1853.3,934.1,1837.6,858.8,1806.1,798.1z"/>
</g>
</svg>
